<?xml version="1.0" standalone="no"?>
<!DOCTYPE svg PUBLIC "-//W3C//DTD SVG 20010904//EN"
 "http://www.w3.org/TR/2001/REC-SVG-20010904/DTD/svg10.dtd">
<svg version="1.0" xmlns="http://www.w3.org/2000/svg"
 width="883.000000pt" height="876.000000pt" viewBox="0 0 883.000000 876.000000"
 preserveAspectRatio="xMidYMid meet">

<g transform="translate(0.000000,876.000000) scale(0.100000,-0.100000)"
fill="#000000" stroke="none">
<path d="M7342 8523 c2 -10 10 -18 18 -18 22 0 18 29 -3 33 -14 3 -18 -1 -15
-15z"/>
<path d="M2956 8502 c-8 -13 11 -35 23 -28 16 10 14 36 -3 36 -8 0 -17 -4 -20
-8z"/>
<path d="M644 8399 c-8 -14 11 -33 25 -25 6 4 11 14 11 22 0 16 -26 19 -36 3z"/>
<path d="M5926 8402 c-8 -13 11 -35 23 -28 16 10 14 36 -3 36 -8 0 -17 -4 -20
-8z"/>
<path d="M4222 8363 c4 -21 33 -25 33 -3 0 8 -8 16 -18 18 -14 3 -18 -1 -15
-15z"/>
<path d="M3413 8320 c-31 -13 -63 -68 -63 -108 0 -72 48 -122 117 -122 59 0
102 39 110 97 14 103 -70 171 -164 133z m126 -35 c21 -21 26 -35 26 -76 0 -45
-4 -54 -33 -80 -58 -52 -137 -30 -162 46 -35 107 91 189 169 110z"/>
<path d="M1904 8306 c-9 -23 7 -38 26 -26 13 8 13 11 -2 26 -16 17 -18 17 -24
0z"/>
<path d="M2950 8248 c-10 -21 -27 -36 -50 -44 -30 -10 -32 -13 -15 -19 39 -13
50 -22 66 -56 l17 -34 15 37 c11 27 23 38 46 43 40 9 39 18 -4 34 -27 9 -37
20 -42 42 -7 37 -14 36 -33 -3z"/>
<path d="M5575 8223 c-11 -47 -33 -72 -75 -83 -22 -6 -40 -14 -40 -19 0 -4 17
-13 39 -19 45 -14 54 -24 71 -75 13 -41 24 -41 35 0 9 40 32 62 77 73 39 11
52 30 21 30 -37 0 -82 38 -94 80 -14 47 -24 51 -34 13z"/>
<path d="M4780 8156 c-6 -8 -10 -25 -8 -38 2 -18 9 -23 33 -23 24 0 31 5 33
23 4 25 -13 52 -33 52 -7 0 -18 -7 -25 -14z m48 -29 c4 -20 -25 -34 -40 -19
-15 15 -1 44 19 40 10 -2 19 -11 21 -21z"/>
<path d="M6000 8135 c-20 -24 -4 -65 25 -65 38 0 53 51 21 72 -17 12 -32 9
-46 -7z m50 -25 c0 -27 -19 -35 -38 -17 -12 13 -13 19 -3 31 16 19 41 10 41
-14z"/>
<path d="M3974 7969 c-70 -27 -128 -79 -161 -147 -24 -48 -28 -69 -28 -137 0
-67 5 -88 27 -131 28 -52 86 -112 135 -138 44 -22 127 -34 181 -25 101 16 176
71 221 161 41 81 44 186 7 263 -65 140 -238 210 -382 154z m252 -36 c156 -95
188 -300 67 -434 -86 -95 -221 -122 -336 -66 -172 85 -212 312 -79 450 66 68
117 88 223 83 64 -2 84 -7 125 -33z"/>
<path d="M1980 7945 c-9 -28 -19 -37 -41 -42 -43 -8 -44 -20 -4 -33 28 -9 37
-19 42 -41 8 -43 20 -44 33 -4 9 28 19 37 41 42 38 7 45 20 17 28 -32 10 -58
35 -58 56 0 33 -18 29 -30 -6z"/>
<path d="M2440 7820 c0 -11 7 -20 15 -20 8 0 15 9 15 20 0 11 -7 20 -15 20 -8
0 -15 -9 -15 -20z"/>
<path d="M7064 7829 c-3 -6 -2 -15 4 -21 13 -13 32 -2 32 18 0 16 -26 19 -36
3z"/>
<path d="M4954 7789 c-8 -14 11 -33 25 -25 16 10 13 36 -3 36 -8 0 -18 -5 -22
-11z"/>
<path d="M2344 7729 c-8 -14 11 -33 25 -25 6 4 11 14 11 22 0 16 -26 19 -36 3z"/>
<path d="M6826 7634 c-19 -18 -19 -20 -6 -45 6 -11 21 -19 35 -19 33 0 47 47
20 67 -24 17 -30 16 -49 -3z"/>
<path d="M1415 7580 c-8 -14 3 -30 21 -30 8 0 14 9 14 20 0 21 -24 28 -35 10z"/>
<path d="M6214 7579 c-3 -6 -2 -15 4 -21 13 -13 32 -2 32 18 0 16 -26 19 -36
3z"/>
<path d="M3027 7573 c-4 -3 -7 -14 -7 -24 0 -27 -41 -67 -78 -76 -44 -11 -42
-25 5 -38 37 -10 51 -27 74 -90 l11 -30 10 25 c26 66 34 75 81 90 26 8 47 17
47 20 0 3 -23 13 -50 23 -46 17 -51 21 -62 62 -12 44 -18 52 -31 38z"/>
<path d="M7019 7548 c-9 -21 -25 -35 -49 -43 l-35 -12 38 -16 c20 -9 39 -23
42 -32 16 -51 16 -51 33 -15 12 24 27 38 50 45 40 12 41 21 1 30 -23 5 -35 16
-45 41 -8 19 -16 34 -17 34 -2 0 -10 -14 -18 -32z"/>
<path d="M4780 7546 c-6 -8 -10 -25 -8 -38 2 -18 9 -23 33 -23 26 0 30 4 33
29 5 41 -32 62 -58 32z m50 -26 c0 -24 -26 -38 -42 -22 -16 16 -2 42 22 42 13
0 20 -7 20 -20z"/>
<path d="M5672 7422 c-8 -23 -22 -37 -49 -48 l-38 -16 37 -15 c28 -11 40 -23
49 -51 l12 -36 14 37 c11 28 23 39 47 45 34 9 43 37 11 37 -30 1 -44 13 -58
48 l-13 32 -12 -33z"/>
<path d="M3620 7255 c-19 -23 -4 -65 23 -65 43 0 60 35 31 64 -19 20 -38 20
-54 1z m50 -25 c0 -24 -29 -38 -40 -20 -12 19 -1 40 21 40 12 0 19 -7 19 -20z"/>
<path d="M570 7218 c-10 -21 -27 -36 -50 -44 l-35 -11 37 -16 c25 -11 42 -26
51 -49 l14 -33 16 37 c11 27 23 38 46 43 40 9 39 20 -1 31 -25 7 -35 17 -43
42 -5 17 -12 32 -15 32 -3 0 -12 -15 -20 -32z"/>
<path d="M6775 7140 c-169 -27 -322 -138 -394 -286 -229 -464 257 -947 719
-714 198 100 316 333 280 555 -24 154 -134 312 -265 382 -107 56 -236 80 -340
63z m55 -36 c-6 -14 -10 -45 -10 -69 0 -60 -33 -96 -128 -141 -50 -24 -94 -54
-124 -85 -61 -63 -87 -64 -139 -8 l-38 41 19 39 20 38 35 -14 c19 -8 46 -15
60 -15 60 0 117 54 130 122 5 28 16 42 41 57 19 11 34 27 34 35 0 15 22 22 77
25 31 1 32 0 23 -25z m187 1 c44 -18 53 -30 53 -68 0 -44 -23 -77 -99 -145
-79 -70 -98 -100 -107 -166 -10 -68 -26 -77 -164 -91 -99 -10 -125 -16 -143
-34 -32 -29 -74 -35 -143 -21 -88 18 -87 15 -68 138 l5 33 35 -26 c47 -36 97
-49 126 -34 13 7 46 31 73 54 69 58 85 65 154 65 49 0 65 4 90 25 52 45 75
143 47 206 -5 11 2 27 19 48 31 36 64 40 122 16z m241 -168 c26 -32 32 -49 32
-86 0 -43 -18 -85 -44 -103 -6 -4 -36 -13 -66 -19 -55 -11 -90 -32 -90 -53 0
-27 -61 -137 -96 -171 -47 -48 -106 -73 -205 -91 -106 -18 -135 -34 -146 -81
l-8 -37 -60 3 c-33 1 -82 10 -110 19 -47 16 -52 21 -83 85 -43 86 -40 108 8
72 78 -58 144 -54 222 14 23 20 54 45 68 54 31 22 106 22 182 1 32 -9 62 -14
65 -10 4 3 10 49 13 100 4 63 12 102 23 120 10 15 52 42 102 66 96 46 106 62
86 140 -6 25 -9 54 -5 63 5 15 11 13 43 -14 20 -17 51 -50 69 -72z m111 -256
c1 -35 -84 -231 -120 -273 -21 -26 -63 -53 -135 -89 -87 -43 -114 -61 -157
-111 -73 -83 -106 -102 -182 -101 -48 0 -77 8 -138 36 -42 20 -77 37 -77 39 0
2 29 2 65 0 58 -4 73 -1 131 28 64 31 93 61 136 138 9 17 34 40 55 52 21 11
65 43 98 71 33 27 96 67 140 89 46 22 90 52 102 68 25 34 42 92 44 147 l1 40
18 -55 c11 -30 19 -66 19 -79z m-34 -268 c-18 -44 -77 -133 -105 -158 -29 -26
44 118 82 160 16 19 32 35 34 35 2 0 -3 -17 -11 -37z m-156 -196 c44 -2 -150
-102 -220 -113 l-44 -7 30 24 c17 12 52 43 78 67 47 43 50 44 95 37 26 -4 53
-7 61 -8z"/>
<path d="M1688 7116 c-75 -26 -117 -50 -198 -111 l-55 -42 -34 24 c-44 30
-151 63 -205 63 -55 0 -151 -25 -195 -52 -51 -30 -118 -96 -146 -143 -35 -60
-58 -160 -52 -226 3 -30 16 -84 30 -118 l25 -62 -48 -64 c-64 -84 -112 -184
-118 -244 -4 -43 -2 -50 18 -61 14 -7 38 -10 63 -6 52 9 180 75 273 142 72 52
72 52 161 56 69 3 100 9 145 30 122 57 214 182 225 306 6 61 6 61 106 169 134
145 207 256 207 313 0 53 -91 65 -202 26z m64 -76 c-3 -32 -59 -113 -132 -192
l-58 -63 -15 35 c-8 19 -27 50 -41 69 -14 19 -26 38 -26 43 0 11 115 87 173
114 68 30 103 28 99 -6z m-547 -21 c56 -16 92 -44 116 -91 31 -60 24 -172 -14
-248 -82 -161 -262 -247 -382 -182 -30 16 -72 64 -84 95 -12 32 -14 142 -2
171 6 15 9 11 19 -23 37 -120 203 -130 315 -17 95 95 94 235 -3 278 -31 13
-40 28 -17 28 6 0 30 -5 52 -11z m151 -24 c85 -38 134 -126 134 -239 l0 -51
-127 -120 c-229 -215 -288 -265 -315 -265 -57 0 -157 92 -198 181 -29 66 -24
71 23 24 71 -72 166 -82 272 -30 98 47 172 141 201 255 28 109 3 199 -70 252
l-41 30 35 -7 c19 -4 58 -17 86 -30z m-192 -5 c14 -5 35 -24 47 -42 46 -74 -2
-196 -101 -256 -50 -30 -61 -33 -117 -30 -71 4 -105 27 -123 84 -11 33 -2 91
20 124 8 12 10 11 10 -8 0 -13 11 -34 25 -47 51 -52 151 -19 187 61 21 50 16
87 -15 109 -21 15 -21 15 10 15 17 0 43 -4 57 -10z m-89 -12 c48 -22 45 -91
-6 -139 -37 -35 -80 -45 -116 -27 -23 11 -29 21 -31 54 -2 34 2 47 24 70 14
16 21 21 14 12 -29 -42 8 -90 57 -72 59 21 52 101 -9 92 -34 -5 -36 -1 -5 12
30 12 42 12 72 -2z m-36 -32 c15 -18 3 -46 -25 -56 -50 -20 -75 24 -32 54 28
20 42 20 57 2z m469 -83 c42 -66 48 -95 23 -117 -19 -17 -20 -17 -26 31 -6 46
-14 76 -30 116 -13 32 3 18 33 -30z m52 -286 c-33 -140 -136 -246 -272 -283
-61 -16 -138 -19 -138 -5 0 6 28 20 61 32 88 32 167 94 209 164 40 68 142 175
148 157 2 -7 -2 -36 -8 -65z m-164 -106 c-34 -46 -121 -114 -163 -127 -10 -3
7 16 37 43 30 26 77 69 105 95 27 25 52 45 54 43 2 -2 -13 -26 -33 -54z m-376
-163 l25 -9 -25 -20 c-103 -80 -225 -144 -255 -133 -39 15 -1 114 77 199 l49
54 52 -40 c28 -23 63 -46 77 -51z"/>
<path d="M7191 7117 c-9 -11 -8 -17 4 -27 12 -10 16 -9 21 5 9 23 -10 40 -25
22z"/>
<path d="M5776 6985 c-19 -20 -20 -26 -3 -49 26 -36 84 4 61 42 -15 23 -38 26
-58 7z m50 -16 c3 -6 0 -18 -9 -26 -18 -18 -37 -9 -37 18 0 21 34 27 46 8z"/>
<path d="M4069 6902 c-12 -29 -25 -41 -50 -49 l-34 -10 34 -13 c23 -9 38 -24
48 -49 l15 -36 17 35 c11 24 26 38 49 45 40 12 41 20 1 31 -31 9 -38 17 -55
61 -8 21 -10 20 -25 -15z"/>
<path d="M2295 6811 c-7 -34 -18 -44 -60 -58 l-30 -10 37 -16 c25 -11 42 -26
51 -49 l14 -33 16 38 c12 28 23 39 47 43 39 8 38 19 -2 30 -24 7 -36 18 -43
41 -15 45 -22 49 -30 14z"/>
<path d="M5770 6569 c-15 -32 -26 -41 -65 -54 -17 -6 -15 -9 17 -22 28 -11 40
-24 49 -51 l12 -36 14 37 c11 27 24 39 51 48 l36 12 -35 16 c-20 9 -40 30 -49
49 l-16 33 -14 -32z"/>
<path d="M8034 6536 c-4 -10 -2 -22 4 -28 8 -8 13 -7 18 6 4 10 2 22 -4 28 -8
8 -13 7 -18 -6z"/>
<path d="M4952 6523 c2 -10 10 -18 18 -18 8 0 16 8 18 18 2 12 -3 17 -18 17
-15 0 -20 -5 -18 -17z"/>
<path d="M7700 6471 c-9 -23 -23 -38 -49 -48 l-36 -15 35 -17 c25 -11 38 -27
46 -51 l12 -35 18 40 c15 30 27 41 54 48 l35 10 -39 16 c-29 13 -43 26 -52 52
l-12 34 -12 -34z"/>
<path d="M4468 6415 c-251 -56 -487 -132 -700 -226 -234 -103 -672 -329 -637
-329 3 0 93 42 200 94 411 199 766 318 1115 376 71 11 141 26 156 31 44 18 47
61 5 73 -26 7 -10 9 -139 -19z"/>
<path d="M1275 6230 c-8 -14 3 -30 21 -30 8 0 14 9 14 20 0 21 -24 28 -35 10z"/>
<path d="M2377 6177 c-12 -28 -23 -39 -47 -43 -38 -8 -38 -17 1 -31 19 -8 34
-23 42 -42 6 -17 14 -31 17 -31 3 0 12 15 20 32 10 21 27 36 49 43 36 12 34
18 -10 29 -19 4 -31 17 -42 43 l-15 38 -15 -38z"/>
<path d="M613 6045 c-7 -20 2 -29 21 -22 9 4 13 13 10 22 -8 19 -23 19 -31 0z"/>
<path d="M3072 4724 c-18 -21 -32 -42 -32 -45 0 -4 -18 -14 -40 -23 -57 -23
-72 -51 -70 -133 1 -37 -1 -84 -5 -104 -8 -43 17 -99 71 -159 41 -45 82 -57
140 -41 21 6 39 9 40 8 1 -1 5 -47 9 -101 7 -97 7 -99 -14 -93 -16 4 -31 -6
-61 -41 -64 -72 -97 -152 -109 -263 -30 -269 -40 -1058 -15 -1090 7 -8 14 -69
17 -139 4 -90 14 -162 36 -255 26 -110 31 -150 31 -260 0 -133 -19 -339 -45
-479 -16 -84 -19 -134 -4 -76 25 102 51 333 56 495 5 177 5 183 -27 315 -22
94 -33 171 -37 253 l-6 119 30 -16 c45 -23 143 -36 273 -36 l115 0 37 -71 37
-70 -24 -11 c-14 -6 -25 -15 -25 -20 0 -14 12 -9 53 19 65 45 107 139 75 171
-8 8 -5 14 17 22 15 6 29 9 31 7 2 -2 11 -46 19 -98 11 -71 13 -79 10 -32 -3
34 -7 79 -11 100 -6 38 -5 40 37 58 l42 19 -6 246 c-11 409 -38 669 -87 820
-47 143 -156 335 -184 324 -10 -4 -15 10 -20 48 -4 29 -9 68 -12 86 -5 25 -3
32 10 32 31 0 73 29 85 58 7 16 11 47 8 68 -3 37 -4 36 -5 -9 -2 -39 -8 -54
-31 -78 -27 -26 -36 -29 -98 -29 -37 0 -98 9 -135 19 -39 11 -83 17 -105 14
-25 -3 -45 1 -58 10 -17 13 -18 18 -7 42 11 23 16 26 40 20 71 -19 77 1 27 91
-47 84 -43 113 23 150 26 15 59 35 74 45 15 11 34 19 41 19 20 0 41 -26 28
-34 -21 -13 0 -35 28 -30 24 5 33 -1 68 -43 22 -26 55 -70 72 -97 17 -28 31
-45 31 -39 0 13 -75 126 -94 142 -11 10 -13 28 -9 79 7 92 -8 106 -119 109
-53 1 -87 7 -104 18 -13 8 -37 18 -53 21 -24 5 -33 0 -59 -32z m173 -495 c22
-7 64 -15 94 -18 62 -7 63 -8 74 -119 7 -61 6 -63 -21 -73 -70 -28 -188 -20
-189 13 0 7 -3 57 -7 111 -5 53 -4 97 1 97 4 0 26 -5 48 -11z m-140 -362 c-18
-15 -31 -42 -40 -77 -8 -35 -14 -45 -14 -28 -2 48 43 128 71 128 5 0 -3 -10
-17 -23z m-58 -204 c-3 -10 -5 -2 -5 17 0 19 2 27 5 18 2 -10 2 -26 0 -35z
m16 -123 c4 -62 3 -73 -3 -40 -9 46 -13 137 -6 129 2 -2 6 -42 9 -89z m232
-190 l4 -105 -8 95 c-5 53 -11 111 -15 130 -5 32 -5 33 5 10 6 -14 12 -72 14
-130z m-218 48 c-2 -13 -4 -5 -4 17 -1 22 1 32 4 23 2 -10 2 -28 0 -40z m31
-188 c0 -14 -6 4 -14 40 -7 36 -13 79 -12 95 0 17 6 -1 14 -40 7 -38 13 -81
12 -95z m248 -46 c48 -44 52 -62 28 -102 -15 -26 -13 -32 36 -147 172 -400
161 -372 146 -408 -7 -17 -24 -42 -37 -54 l-24 -22 -142 257 c-109 198 -146
257 -161 257 -10 0 -26 6 -35 13 -15 13 -58 170 -56 208 0 11 10 -24 23 -76
28 -120 40 -143 69 -134 47 14 139 69 163 96 34 42 30 62 -21 110 -27 25 -45
51 -44 63 1 20 1 20 6 0 3 -11 25 -38 49 -61z"/>
<path d="M4245 4685 c6 -44 5 -55 -7 -55 -8 0 -25 -11 -37 -24 -20 -21 -22
-31 -16 -63 3 -21 17 -57 31 -80 21 -37 24 -54 24 -147 0 -59 -4 -108 -10
-111 -5 -3 -9 -39 -8 -78 l2 -72 3 65 c2 35 9 68 16 72 7 4 35 8 64 8 57 0 51
8 66 -90 3 -14 5 -2 6 27 1 34 -4 57 -14 67 -8 8 -22 54 -30 103 -12 77 -14
80 -9 23 3 -36 8 -77 11 -92 5 -27 4 -28 -41 -28 l-46 0 0 112 c0 79 -4 116
-13 127 -17 20 -47 95 -47 118 0 18 37 53 56 53 8 0 14 15 16 38 3 36 4 36 16
-20 8 -32 17 -58 21 -58 4 0 16 7 27 15 35 26 47 16 15 -14 -30 -28 -31 -31
-29 -108 l2 -78 3 75 c4 70 6 77 39 111 42 43 33 56 -20 30 l-36 -19 -6 27
c-13 59 -36 121 -46 121 -6 0 -7 -21 -3 -55z m12 13 c-3 -8 -6 -5 -6 6 -1 11
2 17 5 13 3 -3 4 -12 1 -19z"/>
<path d="M3350 4540 c0 -5 7 -10 15 -10 8 0 15 5 15 10 0 6 -7 10 -15 10 -8 0
-15 -4 -15 -10z"/>
<path d="M3199 4483 c-6 -17 -7 -34 -2 -42 17 -27 31 -22 37 13 9 49 9 51 -8
54 -10 2 -20 -8 -27 -25z"/>
<path d="M3357 4493 c-24 -24 45 -109 79 -96 30 11 12 56 -32 80 -22 13 -44
20 -47 16z m57 -34 c31 -24 34 -49 7 -49 -17 0 -61 47 -61 64 0 13 29 5 54
-15z"/>
<path d="M3267 4474 c-8 -8 1 -24 14 -24 5 0 9 7 9 15 0 15 -12 20 -23 9z"/>
<path d="M3471 4384 c0 -11 3 -14 6 -6 3 7 2 16 -1 19 -3 4 -6 -2 -5 -13z"/>
<path d="M3440 4344 c-17 -9 -20 -14 -9 -14 9 0 22 7 29 15 15 18 13 18 -20
-1z"/>
<path d="M4381 4053 c-2 -50 45 -257 72 -316 30 -66 110 -145 207 -205 41 -25
77 -47 79 -48 2 -2 -7 -17 -19 -33 -12 -17 -33 -59 -48 -94 -36 -86 -37 -215
-3 -301 28 -69 79 -129 135 -159 48 -24 166 -29 231 -10 89 28 184 129 185
198 l1 30 17 -24 c9 -13 53 -94 97 -180 45 -86 114 -220 154 -298 l73 -142
-37 -46 c-21 -25 -43 -44 -49 -42 -14 4 -232 308 -288 400 -22 37 -43 66 -45
63 -7 -7 56 -104 195 -299 98 -137 138 -185 146 -177 19 15 81 -55 106 -120
15 -38 20 -66 16 -92 -8 -48 10 -59 29 -16 l14 33 1 -48 c0 -35 4 -47 13 -44
7 2 11 20 10 43 -1 30 0 34 7 19 7 -15 9 -16 9 -4 1 9 -6 32 -14 50 -13 32
-14 32 -15 9 -1 -23 -2 -23 -10 -5 -8 21 -13 15 -23 -30 -3 -13 -5 -9 -6 11
-2 49 -41 135 -79 176 -35 37 -35 38 -17 58 l19 21 41 -43 c46 -48 110 -89
168 -108 51 -16 40 -24 -13 -10 -23 6 -44 9 -47 6 -3 -3 6 -33 21 -66 14 -34
26 -67 25 -73 0 -7 -11 12 -25 42 -13 30 -26 52 -29 50 -2 -3 2 -29 10 -59 15
-57 19 -104 5 -60 -7 23 -8 23 -9 3 -1 -29 9 -54 20 -47 5 3 9 14 9 24 0 13 5
17 15 14 20 -8 20 35 -1 84 -37 86 -37 81 2 70 37 -10 78 -3 69 12 -3 5 -24
14 -46 20 -22 6 -55 22 -75 35 -20 13 -44 27 -54 30 -26 8 -74 84 -62 98 7 8
-45 118 -168 355 -160 305 -182 354 -204 445 -39 160 -39 161 -11 347 31 210
34 300 11 355 -37 88 -101 125 -216 125 -113 0 -188 -43 -207 -119 -3 -14 -15
-41 -26 -59 -25 -43 -35 -163 -17 -218 14 -43 46 -84 67 -84 23 0 14 -36 -19
-74 l-33 -37 -90 59 c-112 74 -176 141 -202 213 -19 48 -56 215 -66 294 l-4
30 -2 -32z m407 -363 c19 -73 16 -94 -13 -70 -30 25 -48 97 -43 173 7 102 21
120 30 37 3 -36 15 -99 26 -140z"/>
<path d="M4231 4009 c-2 -70 25 -195 69 -324 44 -126 171 -438 176 -432 2 2
-26 75 -62 163 -118 287 -154 410 -177 609 -3 20 -5 14 -6 -16z"/>
<path d="M4480 3237 c0 -5 5 -17 11 -28 6 -11 14 -57 19 -102 l9 -82 -4 81
c-2 49 -9 93 -19 110 -8 16 -15 25 -16 21z"/>
<path d="M4500 2990 c0 -19 -5 -82 -12 -140 -14 -126 -9 -152 36 -180 l35 -21
-20 -57 c-123 -357 -129 -918 -14 -1466 42 -200 134 -466 161 -466 9 0 64
-176 64 -207 0 -15 -49 -18 -166 -11 -40 3 -49 -1 -70 -25 -52 -61 -28 -90
118 -147 120 -46 259 -41 292 12 14 23 -9 159 -30 174 -20 16 -51 204 -35 214
8 5 4 63 -14 211 -57 460 -68 584 -68 749 1 158 22 324 51 400 8 22 11 19 21
-35 65 -330 145 -560 249 -711 41 -60 157 -188 360 -397 83 -85 118 -115 126
-108 9 8 41 -16 113 -82 60 -54 96 -93 87 -95 -19 -4 -18 -11 6 -47 34 -51 27
-80 -35 -140 -30 -29 -55 -57 -55 -63 0 -17 55 -42 91 -42 25 0 42 10 73 43
50 52 188 274 184 295 -5 25 -62 53 -122 59 l-56 6 -74 90 c-41 49 -72 96 -69
103 3 7 -31 53 -76 103 -182 204 -289 373 -336 536 -33 116 -78 357 -105 570
-29 227 -53 318 -137 523 -3 6 2 12 10 12 9 0 25 12 36 26 18 22 20 37 16 116
-2 52 -9 96 -16 102 -9 8 -10 3 -6 -24 3 -19 9 -65 13 -101 5 -60 4 -69 -15
-88 -17 -17 -33 -21 -82 -21 -34 0 -58 -4 -54 -9 18 -29 56 -276 70 -448 20
-257 32 -332 86 -520 88 -307 166 -434 423 -685 101 -100 132 -125 143 -117
10 9 18 6 33 -14 11 -14 49 -59 85 -102 58 -68 64 -79 54 -98 -16 -31 -40 -57
-53 -57 -12 0 -198 167 -205 183 -2 5 13 22 32 38 l36 30 -153 152 c-235 234
-298 331 -380 587 -63 194 -94 359 -111 580 -14 180 -30 298 -59 420 l-12 55
-106 3 -105 3 -6 -188 c-4 -151 -12 -229 -40 -398 -82 -493 -77 -640 44 -1149
27 -115 49 -214 49 -219 0 -32 -15 21 -59 214 -98 427 -96 413 -95 634 0 208
11 316 60 590 19 101 27 192 31 328 l6 187 -96 0 c-92 0 -98 1 -129 29 l-32
28 14 147 c7 80 10 149 7 153 -4 3 -7 -9 -7 -27z m354 -2431 c19 -118 16 -128
-26 -129 -52 0 -63 15 -90 121 -31 118 -31 119 48 119 l50 0 18 -111z m1170
105 c9 -3 16 -11 16 -16 0 -22 -156 -261 -192 -293 -35 -32 -75 -45 -92 -28
-3 4 15 30 42 57 27 28 77 98 112 156 52 88 84 130 96 130 1 0 9 -3 18 -6z
m-1370 -353 c87 -27 179 -28 229 -2 33 17 37 17 37 2 -1 -42 -40 -61 -127 -61
-106 0 -283 66 -283 105 0 13 5 13 38 -4 20 -10 68 -28 106 -40z"/>
<path d="M3134 2425 c0 -49 1 -71 3 -48 2 23 2 64 0 90 -2 26 -3 8 -3 -42z"/>
<path d="M3661 2390 c-1 -22 13 -144 53 -465 8 -60 14 -92 14 -70 1 46 -65
572 -67 535z"/>
<path d="M3141 2307 c-3 -80 92 -404 179 -612 68 -162 66 -146 26 -269 -20
-60 -34 -111 -32 -113 2 -3 17 34 32 81 16 47 31 83 36 78 4 -4 9 -39 11 -77
2 -39 3 -20 2 40 -3 108 -4 113 -59 248 -94 233 -151 415 -181 582 -7 39 -14
57 -14 42z"/>
<path d="M3732 1770 c0 -25 3 -70 8 -100 6 -47 7 -49 8 -15 0 22 -4 67 -8 100
-6 55 -7 56 -8 15z"/>
<path d="M3748 1400 c-4 -118 -14 -291 -22 -385 -9 -93 -22 -249 -31 -345 -8
-96 -18 -199 -21 -227 l-6 -53 -103 0 -103 0 -7 108 c-10 170 -12 161 -10 -61
1 -171 3 -210 15 -217 8 -6 121 -10 251 -10 237 0 259 3 259 37 0 16 -86 59
-202 103 -49 18 -88 35 -88 39 0 3 11 125 25 271 39 424 56 696 53 830 -3 112
-4 103 -10 -90z"/>
<path d="M2977 1265 c-16 -70 -26 -129 -24 -131 6 -6 59 234 55 247 -2 6 -16
-46 -31 -116z"/>
<path d="M3403 1230 c0 -47 2 -66 4 -42 2 23 2 61 0 85 -2 23 -4 4 -4 -43z"/>
<path d="M3266 1194 c-14 -43 -24 -79 -22 -81 2 -2 15 31 30 73 15 42 25 78
23 81 -3 2 -17 -31 -31 -73z"/>
<path d="M3413 1070 c-1 -41 2 -113 6 -160 l8 -85 0 70 c1 39 -2 111 -6 160
l-8 90 0 -75z"/>
<path d="M2932 1068 c-7 -28 -11 -53 -8 -55 2 -2 9 19 16 47 7 28 10 53 8 55
-3 3 -10 -18 -16 -47z"/>
<path d="M3121 788 c-62 -172 -114 -314 -116 -316 -3 -3 -136 89 -166 114 -14
13 -13 25 13 126 15 62 27 117 25 123 -2 5 -17 -44 -33 -110 -27 -112 -32
-123 -76 -173 -66 -72 -64 -87 20 -147 269 -196 250 -185 318 -185 91 0 98 30
21 85 -48 35 -119 132 -113 155 2 8 54 154 115 324 61 170 110 311 108 313 -2
2 -55 -138 -116 -309z"/>
<path d="M2896 929 c-10 -38 -17 -72 -14 -74 2 -3 12 27 22 66 10 38 17 72 14
74 -2 3 -12 -27 -22 -66z"/>
<path d="M3433 740 c0 -47 2 -66 4 -42 2 23 2 61 0 85 -2 23 -4 4 -4 -43z"/>
</g>
</svg>
