<svg xmlns="http://www.w3.org/2000/svg" width="893.258" height="131.362" viewBox="0 0 893.258 131.362"><path d="M2788.225-1596.208l64.329-20,53.061,2.091,71.147-1.17,76.792.208-2.484-10.992,86.75,2.059,83.34-2.477,51.458,7.472,94.607-4.581,80.54-3.01,89.279-3.6,25.7,3,34.727,3.73-75.8,6.487-75.482,6.345-109.148,3.6-56.11,4.922-7.88,4.1,84.2-2.556,82.595-4.042,83.024-6.555,74.986-5.557,82.572-10.9-36.646,15.706-38.633,19.536-28.247,8.133-76.679,14.13,73-9.653-56.11,13.451-98.626,16.2,43.894.928,76.228-4.019-72.3,16.652-91.469,9.818-71.215,8.311-98.4,12.394-87.179,7.2-71.847-1.235-85.35-4.988-86.162-7.919-23.8-12.687-52.745-8.725,23.347-28.581-34.321-31.99,1.061-1.233" transform="translate(-2787.164 1630.213)" fill="#f7e353"/></svg>